<?xml version="1.0" encoding="UTF-8" standalone="no"?>
<!DOCTYPE svg PUBLIC "-//W3C//DTD SVG 1.1//EN" "http://www.w3.org/Graphics/SVG/1.1/DTD/svg11.dtd">
<svg width="100%" height="100%" viewBox="0 0 512 512" version="1.1" xmlns="http://www.w3.org/2000/svg" xmlns:xlink="http://www.w3.org/1999/xlink" xml:space="preserve" xmlns:serif="http://www.serif.com/" style="fill-rule:evenodd;clip-rule:evenodd;stroke-linejoin:round;stroke-miterlimit:2;">
    <g transform="matrix(1.280443,0,0,1.314655,-8701.886011,-2428.055209)">
        <g transform="matrix(0.595019,0,0,0.595019,6411.169352,1693.497712)">
            <path d="M1112.373,386.916L1058.772,452.314L865.348,453.106C857.496,453.959 851.758,456.928 847.815,461.691L834.783,486.377C833.206,491.218 834.174,494.992 837.647,497.715L1026.444,496.853C1048.477,501.086 1058.317,513.811 1051.844,537.897L1007.265,626.055C994.472,650.796 968.425,671.073 946.363,672.378L674.867,671.437L728.259,606.671L930.052,606.293C936.507,605.507 936.761,603.932 939.973,599.672L956.225,568.151C956.537,566.124 955.905,563.299 954.509,561.983L782.545,561.983C757.464,557.096 746.203,535.342 751.415,506.377C758.454,474.368 771.801,444.034 792.044,419.016C806.796,402.018 826.614,389.489 853.793,388.025L1112.373,386.916Z" style="fill:white;"/>
        </g>
        <g transform="matrix(1.038038,0,0,1.038038,6235.334093,1692.574571)">
            <path d="M720.911,411.284L816.922,411.397C821.507,411.444 825.792,410.292 829.404,406.448L835.707,394.388C837.021,388.792 833.721,388.159 829.521,386.132L747.724,386.132L767.272,349.292L845.568,348.935C845.568,348.935 853.671,345.856 856.954,342.756C859.642,340.217 862.06,335.988 861.817,332.787C861.574,329.585 859.397,325.057 855.495,323.547L775.842,323.297L791.476,286.352L881.899,286.656C894.935,286.943 909.758,298.698 909.193,309.239C908.499,322.199 899.567,358.274 871.28,367.824C875.38,371.112 878.563,375.127 880.246,379.83C886.391,396.996 861.461,449.896 830.582,449.867L656.085,449.878L683.197,396.594L728.769,396.922L720.911,411.284Z" style="fill:white;"/>
        </g>
    </g>
</svg>
